<svg width="561" height="100" viewBox="0 0 561 100" fill="none" xmlns="http://www.w3.org/2000/svg">
<path d="M108.811 85V14.71H137.917C140.953 14.71 143.725 15.337 146.233 16.591C148.807 17.845 151.018 19.561 152.866 21.739C154.714 23.851 156.166 26.227 157.222 28.867C158.278 31.441 158.806 34.081 158.806 36.787C158.806 40.615 157.948 44.245 156.232 47.677C154.582 51.043 152.239 53.782 149.203 55.894C146.167 58.006 142.603 59.062 138.511 59.062H115.741V85H108.811ZM115.741 52.924H138.214C140.986 52.924 143.395 52.165 145.441 50.647C147.487 49.129 149.071 47.149 150.193 44.707C151.315 42.265 151.876 39.625 151.876 36.787C151.876 33.883 151.216 31.21 149.896 28.768C148.576 26.326 146.827 24.412 144.649 23.026C142.537 21.574 140.194 20.848 137.62 20.848H115.741V52.924ZM164.272 70.15C164.272 66.916 165.196 64.144 167.044 61.834C168.892 59.458 171.433 57.643 174.667 56.389C177.967 55.069 181.762 54.409 186.052 54.409C188.56 54.409 191.167 54.607 193.873 55.003C196.579 55.399 198.988 55.993 201.1 56.785V52.429C201.1 48.073 199.813 44.608 197.239 42.034C194.665 39.46 191.101 38.173 186.547 38.173C183.775 38.173 181.036 38.701 178.33 39.757C175.69 40.747 172.918 42.232 170.014 44.212L167.44 39.46C170.806 37.15 174.106 35.434 177.34 34.312C180.574 33.124 183.874 32.53 187.24 32.53C193.576 32.53 198.592 34.345 202.288 37.975C205.984 41.605 207.832 46.621 207.832 53.023V76.882C207.832 77.806 208.03 78.499 208.426 78.961C208.822 79.357 209.449 79.588 210.307 79.654V85C209.581 85.066 208.954 85.132 208.426 85.198C207.898 85.264 207.502 85.264 207.238 85.198C205.588 85.132 204.334 84.604 203.476 83.614C202.618 82.624 202.156 81.568 202.09 80.446L201.991 76.684C199.681 79.654 196.678 81.964 192.982 83.614C189.286 85.198 185.524 85.99 181.696 85.99C178.396 85.99 175.393 85.297 172.687 83.911C170.047 82.459 167.968 80.545 166.45 78.169C164.998 75.727 164.272 73.054 164.272 70.15ZM198.823 74.11C199.549 73.186 200.11 72.295 200.506 71.437C200.902 70.579 201.1 69.82 201.1 69.16V61.636C198.856 60.778 196.513 60.118 194.071 59.656C191.695 59.194 189.286 58.963 186.844 58.963C182.026 58.963 178.132 59.92 175.162 61.834C172.192 63.748 170.707 66.355 170.707 69.655C170.707 71.569 171.202 73.384 172.192 75.1C173.182 76.75 174.634 78.136 176.548 79.258C178.462 80.314 180.706 80.842 183.28 80.842C186.514 80.842 189.517 80.215 192.289 78.961C195.127 77.707 197.305 76.09 198.823 74.11ZM222.674 12.73H229.406V73.318C229.406 75.892 229.868 77.575 230.792 78.367C231.716 79.159 232.838 79.555 234.158 79.555C235.346 79.555 236.534 79.423 237.722 79.159C238.91 78.895 239.933 78.631 240.791 78.367L241.979 83.812C240.725 84.34 239.174 84.769 237.326 85.099C235.544 85.429 233.993 85.594 232.673 85.594C229.637 85.594 227.195 84.703 225.347 82.921C223.565 81.139 222.674 78.697 222.674 75.595V12.73ZM249.648 12.73H256.38V73.318C256.38 75.892 256.842 77.575 257.766 78.367C258.69 79.159 259.812 79.555 261.132 79.555C262.32 79.555 263.508 79.423 264.696 79.159C265.884 78.895 266.907 78.631 267.765 78.367L268.953 83.812C267.699 84.34 266.148 84.769 264.3 85.099C262.518 85.429 260.967 85.594 259.647 85.594C256.611 85.594 254.169 84.703 252.321 82.921C250.539 81.139 249.648 78.697 249.648 75.595V12.73ZM272.166 70.15C272.166 66.916 273.09 64.144 274.938 61.834C276.786 59.458 279.327 57.643 282.561 56.389C285.861 55.069 289.656 54.409 293.946 54.409C296.454 54.409 299.061 54.607 301.767 55.003C304.473 55.399 306.882 55.993 308.994 56.785V52.429C308.994 48.073 307.707 44.608 305.133 42.034C302.559 39.46 298.995 38.173 294.441 38.173C291.669 38.173 288.93 38.701 286.224 39.757C283.584 40.747 280.812 42.232 277.908 44.212L275.334 39.46C278.7 37.15 282 35.434 285.234 34.312C288.468 33.124 291.768 32.53 295.134 32.53C301.47 32.53 306.486 34.345 310.182 37.975C313.878 41.605 315.726 46.621 315.726 53.023V76.882C315.726 77.806 315.924 78.499 316.32 78.961C316.716 79.357 317.343 79.588 318.201 79.654V85C317.475 85.066 316.848 85.132 316.32 85.198C315.792 85.264 315.396 85.264 315.132 85.198C313.482 85.132 312.228 84.604 311.37 83.614C310.512 82.624 310.05 81.568 309.984 80.446L309.885 76.684C307.575 79.654 304.572 81.964 300.876 83.614C297.18 85.198 293.418 85.99 289.59 85.99C286.29 85.99 283.287 85.297 280.581 83.911C277.941 82.459 275.862 80.545 274.344 78.169C272.892 75.727 272.166 73.054 272.166 70.15ZM306.717 74.11C307.443 73.186 308.004 72.295 308.4 71.437C308.796 70.579 308.994 69.82 308.994 69.16V61.636C306.75 60.778 304.407 60.118 301.965 59.656C299.589 59.194 297.18 58.963 294.738 58.963C289.92 58.963 286.026 59.92 283.056 61.834C280.086 63.748 278.601 66.355 278.601 69.655C278.601 71.569 279.096 73.384 280.086 75.1C281.076 76.75 282.528 78.136 284.442 79.258C286.356 80.314 288.6 80.842 291.174 80.842C294.408 80.842 297.411 80.215 300.183 78.961C303.021 77.707 305.199 76.09 306.717 74.11ZM326.807 59.359C326.807 54.475 327.797 50.02 329.777 45.994C331.823 41.902 334.628 38.635 338.192 36.193C341.756 33.751 345.815 32.53 350.369 32.53C354.659 32.53 358.487 33.685 361.853 35.995C365.285 38.239 367.958 40.978 369.872 44.212V12.73H376.604V76.882C376.604 77.806 376.802 78.499 377.198 78.961C377.594 79.357 378.188 79.588 378.98 79.654V85C377.66 85.198 376.637 85.264 375.911 85.198C374.525 85.132 373.304 84.571 372.248 83.515C371.192 82.459 370.664 81.304 370.664 80.05V75.001C368.618 78.367 365.846 81.04 362.348 83.02C358.85 85 355.22 85.99 351.458 85.99C347.894 85.99 344.594 85.264 341.558 83.812C338.588 82.36 335.981 80.38 333.737 77.872C331.559 75.364 329.843 72.526 328.589 69.358C327.401 66.124 326.807 62.791 326.807 59.359ZM369.872 67.279V51.34C369.014 48.964 367.628 46.819 365.714 44.905C363.8 42.925 361.622 41.374 359.18 40.252C356.804 39.064 354.428 38.47 352.052 38.47C349.28 38.47 346.772 39.064 344.528 40.252C342.284 41.374 340.337 42.925 338.687 44.905C337.103 46.885 335.882 49.129 335.024 51.637C334.166 54.145 333.737 56.719 333.737 59.359C333.737 62.131 334.199 64.771 335.123 67.279C336.113 69.787 337.499 72.031 339.281 74.011C341.063 75.925 343.109 77.41 345.419 78.466C347.729 79.522 350.237 80.05 352.943 80.05C354.659 80.05 356.441 79.72 358.289 79.06C360.137 78.4 361.886 77.509 363.536 76.387C365.252 75.199 366.671 73.813 367.793 72.229C368.915 70.645 369.608 68.995 369.872 67.279ZM391.857 85V33.421H398.589V85H391.857ZM391.857 22.63V12.73H398.589V22.63H391.857ZM412.921 63.715V33.421H419.653V62.527C419.653 68.401 420.643 72.79 422.623 75.694C424.669 78.598 427.672 80.05 431.632 80.05C434.272 80.05 436.813 79.489 439.255 78.367C441.763 77.179 443.974 75.529 445.888 73.417C447.802 71.239 449.254 68.731 450.244 65.893V33.421H456.976V76.882C456.976 77.806 457.174 78.499 457.57 78.961C457.966 79.357 458.56 79.588 459.352 79.654V85C458.56 85.066 457.933 85.099 457.471 85.099C457.009 85.165 456.58 85.198 456.184 85.198C454.864 85.066 453.709 84.538 452.719 83.614C451.795 82.69 451.3 81.568 451.234 80.248L451.036 73.318C448.792 77.278 445.723 80.38 441.829 82.624C438.001 84.868 433.843 85.99 429.355 85.99C423.943 85.99 419.851 84.109 417.079 80.347C414.307 76.585 412.921 71.041 412.921 63.715ZM548.922 85H542.19V56.191C542.19 50.185 541.233 45.763 539.319 42.925C537.405 40.087 534.567 38.668 530.805 38.668C526.911 38.668 523.413 40.054 520.311 42.826C517.275 45.598 515.13 49.162 513.876 53.518V85H507.144V56.191C507.144 50.119 506.22 45.697 504.372 42.925C502.524 40.087 499.686 38.668 495.858 38.668C492.03 38.668 488.565 40.021 485.463 42.727C482.361 45.433 480.183 48.997 478.929 53.419V85H472.197V33.421H478.335V45.103C480.513 41.077 483.285 37.975 486.651 35.797C490.083 33.619 493.878 32.53 498.036 32.53C502.326 32.53 505.791 33.751 508.431 36.193C511.071 38.635 512.688 41.836 513.282 45.796C515.658 41.44 518.496 38.14 521.796 35.896C525.162 33.652 528.957 32.53 533.181 32.53C536.085 32.53 538.527 33.058 540.507 34.114C542.553 35.17 544.17 36.688 545.358 38.668C546.612 40.582 547.503 42.925 548.031 45.697C548.625 48.403 548.922 51.439 548.922 54.805V85Z" fill="white"/>
<path d="M50 0L57.3086 32.3555L85.3553 14.6447L67.6445 42.6914L100 50L67.6445 57.3086L85.3553 85.3553L57.3086 67.6445L50 100L42.6914 67.6445L14.6447 85.3553L32.3555 57.3086L0 50L32.3555 42.6914L14.6447 14.6447L42.6914 32.3555L50 0Z" fill="#88ABE6"/>
</svg>
