<svg width="461" height="100" viewBox="0 0 461 100" fill="none" xmlns="http://www.w3.org/2000/svg">
<path d="M8.811 93V22.71H37.917C40.953 22.71 43.725 23.337 46.233 24.591C48.807 25.845 51.018 27.561 52.866 29.739C54.714 31.851 56.166 34.227 57.222 36.867C58.278 39.441 58.806 42.081 58.806 44.787C58.806 48.615 57.948 52.245 56.232 55.677C54.582 59.043 52.239 61.782 49.203 63.894C46.167 66.006 42.603 67.062 38.511 67.062H15.741V93H8.811ZM15.741 60.924H38.214C40.986 60.924 43.395 60.165 45.441 58.647C47.487 57.129 49.071 55.149 50.193 52.707C51.315 50.265 51.876 47.625 51.876 44.787C51.876 41.883 51.216 39.21 49.896 36.768C48.576 34.326 46.827 32.412 44.649 31.026C42.537 29.574 40.194 28.848 37.62 28.848H15.741V60.924ZM64.2719 78.15C64.2719 74.916 65.1959 72.144 67.0439 69.834C68.8919 67.458 71.4329 65.643 74.6669 64.389C77.9669 63.069 81.7619 62.409 86.0519 62.409C88.5599 62.409 91.1669 62.607 93.8729 63.003C96.5789 63.399 98.9879 63.993 101.1 64.785V60.429C101.1 56.073 99.8129 52.608 97.2389 50.034C94.6649 47.46 91.1009 46.173 86.5469 46.173C83.7749 46.173 81.0359 46.701 78.3299 47.757C75.6899 48.747 72.9179 50.232 70.0139 52.212L67.4399 47.46C70.8059 45.15 74.1059 43.434 77.3399 42.312C80.5739 41.124 83.8739 40.53 87.2399 40.53C93.5759 40.53 98.5919 42.345 102.288 45.975C105.984 49.605 107.832 54.621 107.832 61.023V84.882C107.832 85.806 108.03 86.499 108.426 86.961C108.822 87.357 109.449 87.588 110.307 87.654V93C109.581 93.066 108.954 93.132 108.426 93.198C107.898 93.264 107.502 93.264 107.238 93.198C105.588 93.132 104.334 92.604 103.476 91.614C102.618 90.624 102.156 89.568 102.09 88.446L101.991 84.684C99.6809 87.654 96.6779 89.964 92.9819 91.614C89.2859 93.198 85.5239 93.99 81.6959 93.99C78.3959 93.99 75.3929 93.297 72.6869 91.911C70.0469 90.459 67.9679 88.545 66.4499 86.169C64.9979 83.727 64.2719 81.054 64.2719 78.15ZM98.8229 82.11C99.5489 81.186 100.11 80.295 100.506 79.437C100.902 78.579 101.1 77.82 101.1 77.16V69.636C98.8559 68.778 96.5129 68.118 94.0709 67.656C91.6949 67.194 89.2859 66.963 86.8439 66.963C82.0259 66.963 78.1319 67.92 75.1619 69.834C72.1919 71.748 70.7069 74.355 70.7069 77.655C70.7069 79.569 71.2019 81.384 72.1919 83.1C73.1819 84.75 74.6339 86.136 76.5479 87.258C78.4619 88.314 80.7059 88.842 83.2799 88.842C86.5139 88.842 89.5169 88.215 92.2889 86.961C95.1269 85.707 97.3049 84.09 98.8229 82.11ZM122.674 20.73H129.406V81.318C129.406 83.892 129.868 85.575 130.792 86.367C131.716 87.159 132.838 87.555 134.158 87.555C135.346 87.555 136.534 87.423 137.722 87.159C138.91 86.895 139.933 86.631 140.791 86.367L141.979 91.812C140.725 92.34 139.174 92.769 137.326 93.099C135.544 93.429 133.993 93.594 132.673 93.594C129.637 93.594 127.195 92.703 125.347 90.921C123.565 89.139 122.674 86.697 122.674 83.595V20.73ZM149.648 20.73H156.38V81.318C156.38 83.892 156.842 85.575 157.766 86.367C158.69 87.159 159.812 87.555 161.132 87.555C162.32 87.555 163.508 87.423 164.696 87.159C165.884 86.895 166.907 86.631 167.765 86.367L168.953 91.812C167.699 92.34 166.148 92.769 164.3 93.099C162.518 93.429 160.967 93.594 159.647 93.594C156.611 93.594 154.169 92.703 152.321 90.921C150.539 89.139 149.648 86.697 149.648 83.595V20.73ZM172.166 78.15C172.166 74.916 173.09 72.144 174.938 69.834C176.786 67.458 179.327 65.643 182.561 64.389C185.861 63.069 189.656 62.409 193.946 62.409C196.454 62.409 199.061 62.607 201.767 63.003C204.473 63.399 206.882 63.993 208.994 64.785V60.429C208.994 56.073 207.707 52.608 205.133 50.034C202.559 47.46 198.995 46.173 194.441 46.173C191.669 46.173 188.93 46.701 186.224 47.757C183.584 48.747 180.812 50.232 177.908 52.212L175.334 47.46C178.7 45.15 182 43.434 185.234 42.312C188.468 41.124 191.768 40.53 195.134 40.53C201.47 40.53 206.486 42.345 210.182 45.975C213.878 49.605 215.726 54.621 215.726 61.023V84.882C215.726 85.806 215.924 86.499 216.32 86.961C216.716 87.357 217.343 87.588 218.201 87.654V93C217.475 93.066 216.848 93.132 216.32 93.198C215.792 93.264 215.396 93.264 215.132 93.198C213.482 93.132 212.228 92.604 211.37 91.614C210.512 90.624 210.05 89.568 209.984 88.446L209.885 84.684C207.575 87.654 204.572 89.964 200.876 91.614C197.18 93.198 193.418 93.99 189.59 93.99C186.29 93.99 183.287 93.297 180.581 91.911C177.941 90.459 175.862 88.545 174.344 86.169C172.892 83.727 172.166 81.054 172.166 78.15ZM206.717 82.11C207.443 81.186 208.004 80.295 208.4 79.437C208.796 78.579 208.994 77.82 208.994 77.16V69.636C206.75 68.778 204.407 68.118 201.965 67.656C199.589 67.194 197.18 66.963 194.738 66.963C189.92 66.963 186.026 67.92 183.056 69.834C180.086 71.748 178.601 74.355 178.601 77.655C178.601 79.569 179.096 81.384 180.086 83.1C181.076 84.75 182.528 86.136 184.442 87.258C186.356 88.314 188.6 88.842 191.174 88.842C194.408 88.842 197.411 88.215 200.183 86.961C203.021 85.707 205.199 84.09 206.717 82.11ZM226.807 67.359C226.807 62.475 227.797 58.02 229.777 53.994C231.823 49.902 234.628 46.635 238.192 44.193C241.756 41.751 245.815 40.53 250.369 40.53C254.659 40.53 258.487 41.685 261.853 43.995C265.285 46.239 267.958 48.978 269.872 52.212V20.73H276.604V84.882C276.604 85.806 276.802 86.499 277.198 86.961C277.594 87.357 278.188 87.588 278.98 87.654V93C277.66 93.198 276.637 93.264 275.911 93.198C274.525 93.132 273.304 92.571 272.248 91.515C271.192 90.459 270.664 89.304 270.664 88.05V83.001C268.618 86.367 265.846 89.04 262.348 91.02C258.85 93 255.22 93.99 251.458 93.99C247.894 93.99 244.594 93.264 241.558 91.812C238.588 90.36 235.981 88.38 233.737 85.872C231.559 83.364 229.843 80.526 228.589 77.358C227.401 74.124 226.807 70.791 226.807 67.359ZM269.872 75.279V59.34C269.014 56.964 267.628 54.819 265.714 52.905C263.8 50.925 261.622 49.374 259.18 48.252C256.804 47.064 254.428 46.47 252.052 46.47C249.28 46.47 246.772 47.064 244.528 48.252C242.284 49.374 240.337 50.925 238.687 52.905C237.103 54.885 235.882 57.129 235.024 59.637C234.166 62.145 233.737 64.719 233.737 67.359C233.737 70.131 234.199 72.771 235.123 75.279C236.113 77.787 237.499 80.031 239.281 82.011C241.063 83.925 243.109 85.41 245.419 86.466C247.729 87.522 250.237 88.05 252.943 88.05C254.659 88.05 256.441 87.72 258.289 87.06C260.137 86.4 261.886 85.509 263.536 84.387C265.252 83.199 266.671 81.813 267.793 80.229C268.915 78.645 269.608 76.995 269.872 75.279ZM291.857 93V41.421H298.589V93H291.857ZM291.857 30.63V20.73H298.589V30.63H291.857ZM312.921 71.715V41.421H319.653V70.527C319.653 76.401 320.643 80.79 322.623 83.694C324.669 86.598 327.672 88.05 331.632 88.05C334.272 88.05 336.813 87.489 339.255 86.367C341.763 85.179 343.974 83.529 345.888 81.417C347.802 79.239 349.254 76.731 350.244 73.893V41.421H356.976V84.882C356.976 85.806 357.174 86.499 357.57 86.961C357.966 87.357 358.56 87.588 359.352 87.654V93C358.56 93.066 357.933 93.099 357.471 93.099C357.009 93.165 356.58 93.198 356.184 93.198C354.864 93.066 353.709 92.538 352.719 91.614C351.795 90.69 351.3 89.568 351.234 88.248L351.036 81.318C348.792 85.278 345.723 88.38 341.829 90.624C338.001 92.868 333.843 93.99 329.355 93.99C323.943 93.99 319.851 92.109 317.079 88.347C314.307 84.585 312.921 79.041 312.921 71.715ZM448.922 93H442.19V64.191C442.19 58.185 441.233 53.763 439.319 50.925C437.405 48.087 434.567 46.668 430.805 46.668C426.911 46.668 423.413 48.054 420.311 50.826C417.275 53.598 415.13 57.162 413.876 61.518V93H407.144V64.191C407.144 58.119 406.22 53.697 404.372 50.925C402.524 48.087 399.686 46.668 395.858 46.668C392.03 46.668 388.565 48.021 385.463 50.727C382.361 53.433 380.183 56.997 378.929 61.419V93H372.197V41.421H378.335V53.103C380.513 49.077 383.285 45.975 386.651 43.797C390.083 41.619 393.878 40.53 398.036 40.53C402.326 40.53 405.791 41.751 408.431 44.193C411.071 46.635 412.688 49.836 413.282 53.796C415.658 49.44 418.496 46.14 421.796 43.896C425.162 41.652 428.957 40.53 433.181 40.53C436.085 40.53 438.527 41.058 440.507 42.114C442.553 43.17 444.17 44.688 445.358 46.668C446.612 48.582 447.503 50.925 448.031 53.697C448.625 56.403 448.922 59.439 448.922 62.805V93Z" fill="#1A1F36"/>
</svg>
